PathFileType	4	(X/Y/Z)	Kaydara	
DataRate	CameraRate	NumFrames	NumMarkers	Units	OrigDataRate	OrigDataStartFrame	OrigNumFrames	
60.00	60.00	4	74	mm	60.00	1901	201	
Frame#	Time	Z_lasi			Z_rasi			Z_rpsi			Z_lpsi			Z_fneck			Z_bneck			Z_fhead			Z_rhead			Z_lhead			Z_rshld			Z_relbtop			Z_relbext			Z_relblow			Z_rwrext			Z_rwrtop			Z_rwrlow			Z_lshld			Z_lelbext			Z_lelblow			Z_lelbtop			Z_lwrext			Z_lwrtop			Z_lwrlow			Z_rtopleg			Z_ltopleg			Z_rkneefr			Z_rkneebk			Z_rkneeis			Z_lkneefr			Z_lknssbk			Z_lkneeis			Z_rankfr			Z_rankis			Z_rankbk			Z_lankfr			Z_lankbk			Z_lankis			A_lasi			A_rasi			A_rpsi			A_lpsi			A_fneck			A_bneck			A_fhead			A_rhead			A_lhead			A_rshld			A_relbtop			A_relbext			A_relblow			A_rwrext			A_rwrtop			A_rwrlow			A_lshld			A_lelbext			A_lelblow			A_lelbtop			A_lwrext			A_lwrtop			A_lwrlow			A_rtopleg			A_ltopleg			A_rkneefr			A_rkneebk			A_rkneeis			A_lkneefr			A_lknssbk			A_lkneeis			A_rankfr			A_rankis			A_rankbk			A_lankfr			A_lankbk			A_lankis			
		X1	Y1	Z1	X2	Y2	Z2	X3	Y3	Z3	X4	Y4	Z4	X5	Y5	Z5	X6	Y6	Z6	X7	Y7	Z7	X8	Y8	Z8	X9	Y9	Z9	X10	Y10	Z10	X11	Y11	Z11	X12	Y12	Z12	X13	Y13	Z13	X14	Y14	Z14	X15	Y15	Z15	X16	Y16	Z16	X17	Y17	Z17	X18	Y18	Z18	X19	Y19	Z19	X20	Y20	Z20	X21	Y21	Z21	X22	Y22	Z22	X23	Y23	Z23	X24	Y24	Z24	X25	Y25	Z25	X26	Y26	Z26	X27	Y27	Z27	X28	Y28	Z28	X29	Y29	Z29	X30	Y30	Z30	X31	Y31	Z31	X32	Y32	Z32	X33	Y33	Z33	X34	Y34	Z34	X35	Y35	Z35	X36	Y36	Z36	X37	Y37	Z37	X38	Y38	Z38	X39	Y39	Z39	X40	Y40	Z40	X41	Y41	Z41	X42	Y42	Z42	X43	Y43	Z43	X44	Y44	Z44	X45	Y45	Z45	X46	Y46	Z46	X47	Y47	Z47	X48	Y48	Z48	X49	Y49	Z49	X50	Y50	Z50	X51	Y51	Z51	X52	Y52	Z52	X53	Y53	Z53	X54	Y54	Z54	X55	Y55	Z55	X56	Y56	Z56	X57	Y57	Z57	X58	Y58	Z58	X59	Y59	Z59	X60	Y60	Z60	X61	Y61	Z61	X62	Y62	Z62	X63	Y63	Z63	X64	Y64	Z64	X65	Y65	Z65	X66	Y66	Z66	X67	Y67	Z67	X68	Y68	Z68	X69	Y69	Z69	X70	Y70	Z70	X71	Y71	Z71	X72	Y72	Z72	X73	Y73	Z73	X74	Y74	Z74	

101	31.667	-231.01511	1059.60068	832.91382	-273.35876	1079.89662	628.66982	-98.71428	1117.77809	555.02052	-40.72635	1093.48022	793.68729	-244.44294	1426.11038	759.68033	-145.79735	1499.24072	784.21883	-352.79812	1622.10892	744.01512	-186.49548	1648.48480	737.97371	-238.37225	1609.75266	870.00687	-193.64937	1453.23730	555.59223	-139.27696	1144.34853	440.44537	-115.08008	1123.29239	492.84050	-206.66500	1149.42261	478.85109	-235.85009	915.83664	430.56622	-269.08747	927.79869	459.45061	-246.29948	920.39124	495.29457	-138.31285	1405.65170	945.27306	-98.81063	1087.65892	925.68542	-156.79359	1102.75391	986.65070	-88.07814	1101.83128	992.09801	-214.94692	844.60793	961.07231	-200.91948	835.31181	1005.40451	-155.28598	833.09891	994.34189	-143.79122	925.92926	497.65392	-143.34686	882.31300	862.34505	-260.58691	424.21947	509.15573	-187.81471	456.53362	465.40516	-202.36103	430.73730	588.43040	-183.65366	439.37778	775.12085	-76.66537	465.11478	781.34842	-159.90187	444.51900	685.82191	-209.45047	185.81425	475.88352	-190.94990	177.44938	539.50512	-132.53466	180.45979	476.48247	-128.60522	156.70570	754.09279	-63.71667	163.40008	706.16859	-139.56311	174.03336	683.35556	-968.96202	1031.27380	485.99739	-966.95518	1038.75290	645.26321	-1129.45557	1039.39346	653.27995	-1094.17992	1041.37291	472.82463	-1040.20584	1380.38162	574.20818	-1175.18387	1418.74725	552.91138	-976.09009	1582.69073	599.30317	-1134.72511	1559.59564	662.41112	-1113.13538	1569.33548	500.51800	-1135.37735	1348.42194	743.13629	-1111.31752	1055.58983	775.42274	-1168.82362	1046.81137	745.49149	-1099.93896	1045.44678	718.05817	-1083.84384	809.48685	799.53384	-1040.81139	822.21451	798.30559	-1037.57675	821.32233	759.17961	-1060.01877	1355.47089	391.56868	-1089.37454	1044.60098	369.70840	-1022.87064	1052.33704	397.71648	-1044.93225	1050.98000	347.54879	-1002.29721	826.10466	385.82897	-1000.84671	829.21249	344.19262	-958.03162	835.25162	359.01039	-1084.03015	877.31720	737.82089	-1023.95630	890.03838	402.48913	-1033.73131	452.29656	656.66908	-1144.55124	487.66148	691.10458	-1116.41541	486.16234	575.69817	-1013.22258	463.96843	516.04359	-1093.40477	480.37575	418.02315	-1118.58597	478.62206	541.62071	-1105.70084	167.30177	676.94077	-1133.03955	162.63929	608.95439	-1186.70486	154.67468	673.16147	-1066.67313	165.95837	458.89637	-1127.51938	168.61626	423.04832	-1126.77017	172.93083	512.47444 
102	31.683	-230.48204	1059.36440	833.39981	-273.28241	1079.71733	629.17728	-98.68614	1117.73994	555.09651	-40.37205	1093.23540	793.72536	-244.47184	1426.05499	758.77983	-145.98421	1499.00436	784.67575	-351.56925	1622.99759	741.34506	-185.02190	1648.42239	739.65759	-241.32496	1608.59421	870.16479	-193.44976	1452.75467	555.62634	-139.00620	1143.88924	440.50522	-114.97062	1122.79343	492.93373	-206.41150	1149.12910	478.83881	-236.31708	915.63202	431.00109	-269.43029	927.73659	459.89628	-246.70723	920.18433	495.90626	-138.46881	1405.63675	945.38780	-99.00750	1087.66273	925.83908	-156.83009	1102.70035	986.41098	-88.24893	1101.71547	992.05757	-215.82584	844.92867	959.85596	-201.83790	835.47234	1004.16733	-156.11236	833.18039	993.10951	-144.00648	926.00670	497.69096	-142.98079	881.96938	862.44766	-260.80252	424.44973	506.13983	-187.09589	456.74240	463.78151	-204.85491	430.99678	586.73573	-183.55219	439.18877	774.95354	-76.53590	464.74331	781.26160	-159.78023	444.22474	685.70190	-208.79749	186.09543	473.93517	-191.72634	177.73237	537.78923	-131.89333	180.82981	475.81760	-128.70542	156.53728	753.77960	-63.84694	163.18184	705.97000	-139.60677	173.89662	682.97371	-968.77884	1031.22536	486.08150	-966.84715	1038.74397	645.47661	-1129.21860	1039.43565	653.41270	-1093.97835	1041.35963	472.91332	-1039.93019	1380.45929	574.17828	-1174.85168	1418.75046	552.86716	-975.88127	1582.73361	599.26376	-1134.50874	1559.67575	662.35184	-1112.91901	1569.39423	500.40161	-1135.07141	1348.58719	743.10524	-1111.00838	1055.63492	775.46638	-1168.46138	1046.90788	745.56564	-1099.73648	1045.47958	718.07289	-1083.65379	809.51408	799.59412	-1040.65643	822.23549	798.35320	-1037.34085	821.26221	759.32739	-1059.79042	1355.41214	391.57017	-1089.17336	1044.54865	369.81724	-1022.65999	1052.25403	397.83138	-1044.77707	1050.88470	347.66766	-1002.34352	825.98625	386.14567	-1000.64537	829.10049	344.29356	-957.83073	835.17334	359.11144	-1083.44193	877.53845	737.85049	-1023.76472	889.98695	402.55241	-1033.71330	452.28378	656.78482	-1144.43916	487.67326	691.15555	-1116.29707	486.18992	575.72880	-1013.21190	463.93372	516.08414	-1093.39188	480.39127	418.03596	-1118.57857	478.65631	541.69174	-1105.68169	167.32056	676.99783	-1133.03833	162.64610	608.99651	-1186.63483	154.66140	673.17192	-1066.67526	165.98413	458.90850	-1127.49916	168.63615	423.04218	-1126.74255	172.90319	512.48638 
103	31.700	-230.13826	1059.02580	833.63029	-273.17053	1079.45824	629.44176	-98.43679	1117.62527	555.04299	-40.07402	1092.96104	793.74542	-244.44984	1425.87418	757.82333	-146.09667	1498.81241	784.81514	-350.46661	1623.74268	739.17122	-183.86511	1648.24203	740.89951	-242.76171	1607.47696	869.91486	-193.19136	1452.22275	555.51239	-138.83592	1143.25798	440.44521	-114.92702	1122.18300	492.94830	-206.23583	1148.64754	478.79654	-236.94225	915.33607	431.29349	-270.00593	927.53914	460.36579	-247.04384	919.78195	496.27495	-138.76644	1405.66483	945.36964	-99.01085	1087.76176	925.86220	-156.93576	1102.66533	986.19064	-88.38776	1101.65146	991.92924	-216.56408	845.37445	958.40240	-202.91948	835.72083	1002.62802	-157.18495	833.25439	991.84624	-144.06705	926.00952	497.52186	-142.72589	881.59973	862.42966	-260.97130	424.45515	503.02261	-186.58596	456.88919	462.20608	-206.15297	431.00922	584.53907	-183.57071	438.90182	774.73778	-76.36221	464.33987	781.06277	-159.77276	443.85914	685.57121	-208.21909	186.34550	472.06966	-192.11607	178.03116	536.22341	-131.38940	181.13951	475.34599	-128.77276	156.30449	753.31841	-63.98855	162.97070	705.66025	-139.66999	173.73564	682.66014	-968.55942	1031.16348	486.11092	-966.65642	1038.72337	645.62057	-1128.89549	1039.49104	653.50410	-1093.76160	1041.34789	473.01338	-1039.58946	1380.53436	574.15554	-1174.50356	1418.77380	552.84531	-975.65559	1582.80945	599.22012	-1134.23988	1559.73740	662.25380	-1112.70683	1569.41330	500.29099	-1134.66179	1348.71063	743.10204	-1110.78728	1055.70831	775.57083	-1168.14812	1047.00401	745.63530	-1099.35570	1045.52078	718.07755	-1083.46237	809.52148	799.66423	-1040.45837	822.24907	798.41179	-1036.90590	821.38557	759.27475	-1059.55482	1355.35339	391.57616	-1088.96751	1044.49127	369.99580	-1022.62657	1052.12563	398.08247	-1044.66637	1050.79300	347.80704	-1002.13531	825.90019	386.25782	-1000.47935	829.02031	344.43470	-957.62146	835.08636	359.22997	-1083.02254	877.62146	737.92206	-1023.71178	889.91379	402.59171	-1033.64746	452.23404	656.91643	-1144.28711	487.66514	691.23817	-1116.18561	486.18801	575.80536	-1013.15750	463.90789	516.11061	-1093.40637	480.42236	418.09551	-1118.53584	478.65364	541.74847	-1105.63591	167.32193	677.04697	-1132.96333	162.66947	609.01733	-1186.63902	154.71389	673.23997	-1066.63696	166.01229	458.90270	-1127.51625	168.64624	423.05515	-1126.73904	172.90415	512.49275 
104	31.717	-229.98480	1058.67050	833.71880	-272.99881	1079.14772	629.46907	-98.10475	1117.44545	554.83368	-39.85906	1092.65945	793.69453	-244.43213	1425.68192	756.91734	-146.09395	1498.56354	784.71817	-349.54872	1624.30450	737.53555	-182.90730	1648.07739	741.84265	-244.08329	1606.41754	869.81735	-192.86282	1451.57501	555.18322	-138.83098	1142.50381	440.37838	-114.96578	1121.39023	492.88795	-206.23783	1148.10913	478.69896	-237.84031	914.95857	431.23226	-270.56448	927.19162	460.64552	-247.23686	919.41757	496.34300	-138.98970	1405.74417	945.18646	-98.95849	1087.91611	925.88135	-157.15245	1102.72240	985.81161	-88.60342	1101.66367	991.82243	-217.41192	845.88257	956.94962	-203.94926	835.99663	1001.19530	-158.19466	833.38203	990.63278	-144.02224	925.98000	497.24930	-142.68003	881.34926	862.34253	-261.15438	424.56905	500.26924	-186.25828	457.13005	460.54176	-207.57755	431.16810	582.64362	-183.75332	438.53630	774.39034	-76.46151	464.09710	780.86411	-159.77450	443.49461	685.38437	-207.82856	186.57526	470.53230	-192.50980	178.35064	534.68517	-130.93620	181.44224	474.70631	-129.00983	156.05904	752.98302	-64.16865	162.75734	705.35965	-139.72972	173.56688	682.30728	-968.34396	1031.09131	486.11084	-966.40701	1038.72757	645.64629	-1128.55629	1039.46274	653.63663	-1093.56216	1041.31592	473.09032	-1039.21974	1380.58197	574.12445	-1174.15833	1418.79272	552.81635	-975.44762	1582.91595	599.11903	-1133.97766	1559.78683	662.17133	-1112.51358	1569.44031	500.10872	-1134.22462	1348.82904	743.11447	-1110.62584	1055.78812	775.69138	-1167.89452	1047.07115	745.70999	-1099.05968	1045.46043	718.12668	-1083.25912	809.57260	799.73686	-1040.25391	822.28569	798.44109	-1036.77414	821.42952	759.31229	-1059.33083	1355.31204	391.60908	-1088.87634	1044.36806	370.18410	-1022.35916	1052.05711	398.15971	-1044.47800	1050.71899	347.90428	-1001.99707	825.81146	386.40007	-1000.36148	828.94127	344.57848	-957.44019	834.98886	359.34185	-1082.80495	877.50229	738.01704	-1023.54187	889.93576	402.61318	-1033.55736	452.23892	657.00111	-1144.15527	487.67738	691.29990	-1116.04210	486.19362	575.85743	-1013.09631	463.88077	516.09581	-1093.41568	480.44090	418.10192	-1118.52188	478.70567	541.78631	-1105.61745	167.32885	677.09877	-1132.90993	162.67416	609.02302	-1186.58798	154.73668	673.28056	-1066.65115	166.02928	458.89889	-1127.49893	168.66327	423.06671	-1126.72592	172.91378	512.52361 
